<?xml version="1.0" encoding="UTF-8" standalone="no"?>
<!-- Created with Inkscape (http://www.inkscape.org/) -->

<svg
   width="89.066208mm"
   height="80.731667mm"
   viewBox="0 0 89.066207 80.731667"
   version="1.1"
   id="svg1"
   inkscape:version="1.4.2 (1:1.4.2+202505120738+ebf0e940d0)"
   sodipodi:docname="L_beam.svg"
   xmlns:inkscape="http://www.inkscape.org/namespaces/inkscape"
   xmlns:sodipodi="http://sodipodi.sourceforge.net/DTD/sodipodi-0.dtd"
   xmlns:xlink="http://www.w3.org/1999/xlink"
   xmlns="http://www.w3.org/2000/svg"
   xmlns:svg="http://www.w3.org/2000/svg"
   xmlns:ns2="http://www.iki.fi/pav/software/textext/">
  <sodipodi:namedview
     id="namedview1"
     pagecolor="#505050"
     bordercolor="#eeeeee"
     borderopacity="1"
     inkscape:showpageshadow="0"
     inkscape:pageopacity="0"
     inkscape:pagecheckerboard="0"
     inkscape:deskcolor="#d1d1d1"
     inkscape:document-units="mm"
     inkscape:zoom="1.5839366"
     inkscape:cx="415.105"
     inkscape:cy="42.931011"
     inkscape:window-width="2560"
     inkscape:window-height="1403"
     inkscape:window-x="1920"
     inkscape:window-y="0"
     inkscape:window-maximized="1"
     inkscape:current-layer="layer1" />
  <defs
     id="defs1">
    <marker
       style="overflow:visible"
       id="DartArrow-9"
       refX="0"
       refY="0"
       orient="auto-start-reverse"
       inkscape:stockid="Dart arrow"
       markerWidth="1"
       markerHeight="1"
       viewBox="0 0 1 1"
       inkscape:isstock="true"
       inkscape:collect="always"
       preserveAspectRatio="xMidYMid">
      <path
         style="fill:context-stroke;fill-rule:evenodd;stroke:none"
         d="M 0,0 5,-5 -12.5,0 5,5 Z"
         transform="scale(-0.5)"
         id="path6-2" />
    </marker>
    <marker
       style="overflow:visible"
       id="marker9-0"
       refX="0"
       refY="0"
       orient="auto-start-reverse"
       inkscape:stockid="Dart arrow"
       markerWidth="1"
       markerHeight="1"
       viewBox="0 0 1 1"
       inkscape:isstock="true"
       inkscape:collect="always"
       preserveAspectRatio="xMidYMid">
      <path
         style="fill:context-stroke;fill-rule:evenodd;stroke:none"
         d="M 0,0 5,-5 -12.5,0 5,5 Z"
         transform="scale(-0.5)"
         id="path9-2" />
    </marker>
    <marker
       style="overflow:visible"
       id="DartArrow-9-1"
       refX="0"
       refY="0"
       orient="auto-start-reverse"
       inkscape:stockid="Dart arrow"
       markerWidth="1"
       markerHeight="1"
       viewBox="0 0 1 1"
       inkscape:isstock="true"
       inkscape:collect="always"
       preserveAspectRatio="xMidYMid">
      <path
         style="fill:context-stroke;fill-rule:evenodd;stroke:none"
         d="M 0,0 5,-5 -12.5,0 5,5 Z"
         transform="scale(-0.5)"
         id="path6-2-2" />
    </marker>
    <marker
       style="overflow:visible"
       id="marker9-0-7"
       refX="0"
       refY="0"
       orient="auto-start-reverse"
       inkscape:stockid="Dart arrow"
       markerWidth="1"
       markerHeight="1"
       viewBox="0 0 1 1"
       inkscape:isstock="true"
       inkscape:collect="always"
       preserveAspectRatio="xMidYMid">
      <path
         style="fill:context-stroke;fill-rule:evenodd;stroke:none"
         d="M 0,0 5,-5 -12.5,0 5,5 Z"
         transform="scale(-0.5)"
         id="path9-2-0" />
    </marker>
    <marker
       style="overflow:visible"
       id="DartArrow-9-5"
       refX="0"
       refY="0"
       orient="auto-start-reverse"
       inkscape:stockid="Dart arrow"
       markerWidth="1"
       markerHeight="1"
       viewBox="0 0 1 1"
       inkscape:isstock="true"
       inkscape:collect="always"
       preserveAspectRatio="xMidYMid">
      <path
         style="fill:context-stroke;fill-rule:evenodd;stroke:none"
         d="M 0,0 5,-5 -12.5,0 5,5 Z"
         transform="scale(-0.5)"
         id="path6-2-9" />
    </marker>
    <marker
       style="overflow:visible"
       id="marker9-0-2"
       refX="0"
       refY="0"
       orient="auto-start-reverse"
       inkscape:stockid="Dart arrow"
       markerWidth="1"
       markerHeight="1"
       viewBox="0 0 1 1"
       inkscape:isstock="true"
       inkscape:collect="always"
       preserveAspectRatio="xMidYMid">
      <path
         style="fill:context-stroke;fill-rule:evenodd;stroke:none"
         d="M 0,0 5,-5 -12.5,0 5,5 Z"
         transform="scale(-0.5)"
         id="path9-2-2" />
    </marker>
    <marker
       style="overflow:visible"
       id="DartArrow-9-1-3"
       refX="0"
       refY="0"
       orient="auto-start-reverse"
       inkscape:stockid="Dart arrow"
       markerWidth="1"
       markerHeight="1"
       viewBox="0 0 1 1"
       inkscape:isstock="true"
       inkscape:collect="always"
       preserveAspectRatio="xMidYMid">
      <path
         style="fill:context-stroke;fill-rule:evenodd;stroke:none"
         d="M 0,0 5,-5 -12.5,0 5,5 Z"
         transform="scale(-0.5)"
         id="path6-2-2-6" />
    </marker>
    <marker
       style="overflow:visible"
       id="marker9-0-7-1"
       refX="0"
       refY="0"
       orient="auto-start-reverse"
       inkscape:stockid="Dart arrow"
       markerWidth="1"
       markerHeight="1"
       viewBox="0 0 1 1"
       inkscape:isstock="true"
       inkscape:collect="always"
       preserveAspectRatio="xMidYMid">
      <path
         style="fill:context-stroke;fill-rule:evenodd;stroke:none"
         d="M 0,0 5,-5 -12.5,0 5,5 Z"
         transform="scale(-0.5)"
         id="path9-2-0-0" />
    </marker>
  </defs>
  <g
     inkscape:label="Layer 1"
     inkscape:groupmode="layer"
     id="layer1"
     transform="translate(-52.51194,-110.94592)">
    <g
       id="g46">
      <path
         style="fill:none;stroke:#000000;stroke-width:0.264583px;stroke-linecap:butt;stroke-linejoin:miter;stroke-opacity:1"
         d="m 60.302025,116.26097 76.042435,0.23623 0.11811,74.31325 -22.05932,-0.0489 -0.008,-53.73684 H 60.300478 Z"
         id="path1"
         sodipodi:nodetypes="ccccccc" />
      <path
         style="fill:none;stroke:#000000;stroke-width:0.12;stroke-linecap:butt;stroke-linejoin:miter;stroke-dasharray:none;stroke-opacity:1;marker-start:url(#DartArrow-9);marker-end:url(#marker9-0)"
         d="m 61.109561,139.49004 52.386529,-0.0222"
         id="path8-7"
         sodipodi:nodetypes="cc" />
      <path
         style="fill:none;stroke:#000000;stroke-width:0.12;stroke-linecap:butt;stroke-linejoin:miter;stroke-dasharray:none;stroke-opacity:1;marker-start:url(#DartArrow-9-5);marker-end:url(#marker9-0-2)"
         d="m 63.856642,117.02485 0.0222,19.10624"
         id="path8-7-9"
         sodipodi:nodetypes="cc" />
      <path
         style="fill:none;stroke:#000000;stroke-width:0.12;stroke-linecap:butt;stroke-linejoin:miter;stroke-dasharray:none;stroke-opacity:1;marker-start:url(#DartArrow-9-1);marker-end:url(#marker9-0-7)"
         d="m 61.198696,113.51432 74.343334,-0.0222"
         id="path8-7-3"
         sodipodi:nodetypes="cc" />
      <path
         style="fill:none;stroke:#000000;stroke-width:0.2;stroke-linecap:butt;stroke-linejoin:miter;stroke-dasharray:none;stroke-opacity:1"
         d="m 60.329605,137.51193 v 4.17097"
         id="path2" />
      <path
         style="fill:none;stroke:#000000;stroke-width:0.2;stroke-linecap:butt;stroke-linejoin:miter;stroke-dasharray:none;stroke-opacity:1"
         d="M 60.316856,111.39202 V 115.563"
         id="path2-6" />
      <path
         style="fill:none;stroke:#000000;stroke-width:0.2;stroke-linecap:butt;stroke-linejoin:miter;stroke-dasharray:none;stroke-opacity:1"
         d="m 136.34752,111.43802 v 4.17097"
         id="path2-6-2" />
      <text
         xml:space="preserve"
         style="font-size:1.41111px;line-height:1.25;font-family:sans-serif;stroke-width:0.197839"
         x="-128.12975"
         y="62.938335"
         id="text12-5-5-4"
         transform="rotate(-90)"><tspan
           sodipodi:role="line"
           id="tspan12-5-6-5"
           style="font-size:1.41111px;stroke-width:0.197839"
           x="-128.12975"
           y="62.938335">0.25</tspan></text>
      <text
         xml:space="preserve"
         style="font-size:1.41111px;line-height:1.25;font-family:sans-serif;stroke-width:0.197839"
         x="85.897926"
         y="141.50681"
         id="text12-5-5-4-3"><tspan
           sodipodi:role="line"
           id="tspan12-5-6-5-1"
           style="font-size:1.41111px;stroke-width:0.197839"
           x="85.897926"
           y="141.50681">0.5</tspan></text>
      <text
         xml:space="preserve"
         style="font-size:1.41111px;line-height:1.25;font-family:sans-serif;stroke-width:0.197839"
         x="96.879578"
         y="111.99323"
         id="text12-5-5-4-3-8"><tspan
           sodipodi:role="line"
           id="tspan12-5-6-5-1-4"
           style="font-size:1.41111px;stroke-width:0.197839"
           x="96.879578"
           y="111.99323">0.75</tspan></text>
      <path
         style="fill:none;stroke:#000000;stroke-width:0.12;stroke-linecap:butt;stroke-linejoin:miter;stroke-dasharray:none;stroke-opacity:1;marker-start:url(#DartArrow-9-1-3);marker-end:url(#marker9-0-7-1)"
         d="m 139.30503,117.34411 0.0222,72.76353"
         id="path8-7-3-3"
         sodipodi:nodetypes="cc" />
      <path
         style="fill:none;stroke:#000000;stroke-width:0.2;stroke-linecap:butt;stroke-linejoin:miter;stroke-dasharray:none;stroke-opacity:1"
         d="m 141.42733,116.46227 h -4.17098"
         id="path2-6-20" />
      <path
         style="fill:none;stroke:#000000;stroke-width:0.2;stroke-linecap:butt;stroke-linejoin:miter;stroke-dasharray:none;stroke-opacity:1"
         d="m 141.42562,190.8393 h -4.17097"
         id="path2-6-2-6" />
      <text
         xml:space="preserve"
         style="font-size:1.41111px;line-height:1.25;font-family:sans-serif;stroke-width:0.197839"
         x="149.24525"
         y="-140.53084"
         id="text12-5-5-4-3-8-1"
         transform="rotate(90)"><tspan
           sodipodi:role="line"
           id="tspan12-5-6-5-1-4-5"
           style="font-size:1.41111px;stroke-width:0.197839"
           x="149.24525"
           y="-140.53084">0.75</tspan></text>
      <path
         style="fill:none;stroke:#000000;stroke-width:0.264583px;stroke-linecap:butt;stroke-linejoin:miter;stroke-opacity:1"
         d="m 115.24876,190.77094 -0.79345,0.81433"
         id="path3"
         inkscape:tile-cx="67.276016"
         inkscape:tile-cy="85.911598"
         inkscape:tile-w="0.98295217"
         inkscape:tile-h="0.9989732"
         inkscape:tile-x0="66.78454"
         inkscape:tile-y0="85.412111" />
      <use
         x="0"
         y="0"
         inkscape:tiled-clone-of="#path3"
         xlink:href="#path3"
         id="use26" />
      <use
         x="0"
         y="0"
         inkscape:tiled-clone-of="#path3"
         xlink:href="#path3"
         transform="translate(1.3201048)"
         id="use27" />
      <use
         x="0"
         y="0"
         inkscape:tiled-clone-of="#path3"
         xlink:href="#path3"
         transform="translate(2.6402095)"
         id="use28" />
      <use
         x="0"
         y="0"
         inkscape:tiled-clone-of="#path3"
         xlink:href="#path3"
         transform="translate(3.9603143)"
         id="use29" />
      <use
         x="0"
         y="0"
         inkscape:tiled-clone-of="#path3"
         xlink:href="#path3"
         transform="translate(5.2804191)"
         id="use30" />
      <use
         x="0"
         y="0"
         inkscape:tiled-clone-of="#path3"
         xlink:href="#path3"
         transform="translate(6.6005238)"
         id="use31" />
      <use
         x="0"
         y="0"
         inkscape:tiled-clone-of="#path3"
         xlink:href="#path3"
         transform="translate(7.9206286)"
         id="use32" />
      <use
         x="0"
         y="0"
         inkscape:tiled-clone-of="#path3"
         xlink:href="#path3"
         transform="translate(9.2407334)"
         id="use33" />
      <use
         x="0"
         y="0"
         inkscape:tiled-clone-of="#path3"
         xlink:href="#path3"
         transform="translate(10.560838)"
         id="use34" />
      <use
         x="0"
         y="0"
         inkscape:tiled-clone-of="#path3"
         xlink:href="#path3"
         transform="translate(11.880943)"
         id="use35" />
      <use
         x="0"
         y="0"
         inkscape:tiled-clone-of="#path3"
         xlink:href="#path3"
         transform="translate(13.201048)"
         id="use36" />
      <use
         x="0"
         y="0"
         inkscape:tiled-clone-of="#path3"
         xlink:href="#path3"
         transform="translate(14.521152)"
         id="use37" />
      <use
         x="0"
         y="0"
         inkscape:tiled-clone-of="#path3"
         xlink:href="#path3"
         transform="translate(15.841257)"
         id="use38" />
      <use
         x="0"
         y="0"
         inkscape:tiled-clone-of="#path3"
         xlink:href="#path3"
         transform="translate(17.161362)"
         id="use39" />
      <use
         x="0"
         y="0"
         inkscape:tiled-clone-of="#path3"
         xlink:href="#path3"
         transform="translate(18.481467)"
         id="use40" />
      <use
         x="0"
         y="0"
         inkscape:tiled-clone-of="#path3"
         xlink:href="#path3"
         transform="translate(19.801571)"
         id="use41" />
      <use
         x="0"
         y="0"
         inkscape:tiled-clone-of="#path3"
         xlink:href="#path3"
         transform="translate(21.121676)"
         id="use42" />
      <path
         style="fill:none;stroke:#000000;stroke-width:0.165;stroke-linecap:butt;stroke-linejoin:miter;stroke-dasharray:none;stroke-opacity:1;marker-end:url(#marker9-0)"
         d="M 58.402185,133.18986 V 121.26011"
         id="path42" />
      <g
         transform="matrix(0.529167,0,0,0.529167,52.512006,125.58335)"
         ns2:version="1.10.2"
         ns2:texconverter="pdflatex"
         ns2:pdfconverter="inkscape"
         ns2:text="$u_y$"
         ns2:preamble="/home/kamasamudram/.config/inkscape/extensions/textext/default_packages.tex"
         ns2:scale="1.5"
         ns2:alignment="middle center"
         ns2:stroke-to-path="0"
         ns2:inkscapeversion="1.4.2"
         ns2:jacobian_sqrt="0.529167"
         id="g45">
        <defs
           id="id-177dc8e7-80f2-4867-8692-65c6dc95302f">
          <g
             id="id-0744f5b0-1597-447b-98a6-15c782cb4e15">
            <symbol
               overflow="visible"
               id="id-e8ceeb17-7c5b-458d-a8d3-9b9e921caa8a">
              <path
                 style="stroke:none;stroke-width:0"
                 d=""
                 id="id-876ae732-6434-4271-b005-2e790b97b367" />
            </symbol>
            <symbol
               overflow="visible"
               id="id-c5c59944-56ce-4bbc-b4f0-6e6f5db99d06">
              <path
                 style="stroke:none;stroke-width:0"
                 d="M 3.484375,-0.5625 C 3.59375,-0.15625 3.953125,0.109375 4.375,0.109375 4.71875,0.109375 4.953125,-0.125 5.109375,-0.4375 5.28125,-0.796875 5.40625,-1.40625 5.40625,-1.421875 c 0,-0.109375 -0.078125,-0.109375 -0.109375,-0.109375 -0.109375,0 -0.109375,0.046875 -0.140625,0.1875 -0.140625,0.5625 -0.328125,1.234375 -0.75,1.234375 -0.203125,0 -0.3125,-0.125 -0.3125,-0.453125 0,-0.21875 0.125,-0.6875 0.203125,-1.046875 L 4.578125,-2.6875 C 4.609375,-2.828125 4.703125,-3.203125 4.75,-3.359375 4.796875,-3.59375 4.890625,-3.96875 4.890625,-4.03125 c 0,-0.171875 -0.140625,-0.265625 -0.28125,-0.265625 -0.046875,0 -0.3125,0.015625 -0.390625,0.34375 -0.1875,0.734375 -0.625,2.484375 -0.75,3 -0.015625,0.046875 -0.40625,0.84375 -1.140625,0.84375 -0.515625,0 -0.609375,-0.453125 -0.609375,-0.8125 0,-0.5625 0.28125,-1.34375 0.53125,-2.03125 0.125,-0.3125 0.171875,-0.453125 0.171875,-0.640625 0,-0.4375 -0.3125,-0.8125 -0.8125,-0.8125 -0.953125,0 -1.3125,1.453125 -1.3125,1.53125 0,0.109375 0.09375,0.109375 0.109375,0.109375 0.109375,0 0.109375,-0.03125 0.15625,-0.1875 0.25,-0.859375 0.640625,-1.234375 1.015625,-1.234375 0.09375,0 0.25,0.015625 0.25,0.328125 0,0.234375 -0.109375,0.53125 -0.171875,0.671875 -0.375,1 -0.578125,1.609375 -0.578125,2.09375 0,0.953125 0.6875,1.203125 1.21875,1.203125 0.65625,0 1.015625,-0.453125 1.1875,-0.671875 z m 0,0"
                 id="id-4f3cd398-3658-445a-a816-304d967cad07" />
            </symbol>
            <symbol
               overflow="visible"
               id="id-e5653833-b9d1-4240-ad11-4b7ef891f467">
              <path
                 style="stroke:none;stroke-width:0"
                 d=""
                 id="id-d6cab970-c90d-4a00-bbd1-77f039016752" />
            </symbol>
            <symbol
               overflow="visible"
               id="id-334e5c74-e1ed-41bf-8e7c-30ca5e4e52b3">
              <path
                 style="stroke:none;stroke-width:0"
                 d="M 3.875,-2.625 C 3.90625,-2.71875 3.90625,-2.734375 3.90625,-2.78125 3.90625,-2.921875 3.796875,-3 3.671875,-3 3.59375,-3 3.46875,-2.96875 3.390625,-2.84375 3.359375,-2.796875 3.3125,-2.578125 3.28125,-2.4375 L 3.125,-1.859375 c -0.03125,0.171875 -0.25,1.046875 -0.28125,1.125 0,0 -0.3125,0.609375 -0.84375,0.609375 -0.484375,0 -0.484375,-0.453125 -0.484375,-0.578125 0,-0.375 0.15625,-0.8125 0.375,-1.359375 C 1.96875,-2.28125 2,-2.359375 2,-2.484375 2,-2.8125 1.71875,-3.078125 1.34375,-3.078125 0.640625,-3.078125 0.328125,-2.125 0.328125,-2 c 0,0.078125 0.09375,0.078125 0.125,0.078125 0.09375,0 0.09375,-0.03125 0.125,-0.109375 C 0.75,-2.609375 1.046875,-2.875 1.328125,-2.875 1.4375,-2.875 1.5,-2.796875 1.5,-2.640625 c 0,0.171875 -0.0625,0.3125 -0.09375,0.40625 C 1.0625,-1.375 1,-1.125 1,-0.8125 1,-0.703125 1,-0.375 1.265625,-0.140625 1.484375,0.03125 1.78125,0.0625 1.96875,0.0625 2.25,0.0625 2.5,-0.03125 2.71875,-0.25 2.640625,0.140625 2.5625,0.4375 2.265625,0.78125 2.078125,1 1.796875,1.21875 1.421875,1.21875 c -0.046875,0 -0.375,0 -0.515625,-0.21875 0.375,-0.046875 0.375,-0.375 0.375,-0.390625 0,-0.21875 -0.203125,-0.265625 -0.265625,-0.265625 -0.171875,0 -0.40625,0.140625 -0.40625,0.46875 0,0.34375 0.328125,0.609375 0.828125,0.609375 C 2.140625,1.421875 3,0.875 3.21875,0 Z m 0,0"
                 id="id-2c69c996-d8c3-4771-87b9-4076a9278b77" />
            </symbol>
          </g>
        </defs>
        <g
           id="id-af2dc69e-97ea-470f-b248-23a3c9ad945c"
           transform="translate(-149.009,-130.359)">
          <g
             style="fill:#000000;fill-opacity:1"
             id="id-5d4ae245-4270-45a5-9b51-72a6ce48af23">
            <g
               transform="translate(148.712,134.765)"
               id="g43">
              <path
                 style="stroke:none;stroke-width:0"
                 d="M 3.484375,-0.5625 C 3.59375,-0.15625 3.953125,0.109375 4.375,0.109375 4.71875,0.109375 4.953125,-0.125 5.109375,-0.4375 5.28125,-0.796875 5.40625,-1.40625 5.40625,-1.421875 c 0,-0.109375 -0.078125,-0.109375 -0.109375,-0.109375 -0.109375,0 -0.109375,0.046875 -0.140625,0.1875 -0.140625,0.5625 -0.328125,1.234375 -0.75,1.234375 -0.203125,0 -0.3125,-0.125 -0.3125,-0.453125 0,-0.21875 0.125,-0.6875 0.203125,-1.046875 L 4.578125,-2.6875 C 4.609375,-2.828125 4.703125,-3.203125 4.75,-3.359375 4.796875,-3.59375 4.890625,-3.96875 4.890625,-4.03125 c 0,-0.171875 -0.140625,-0.265625 -0.28125,-0.265625 -0.046875,0 -0.3125,0.015625 -0.390625,0.34375 -0.1875,0.734375 -0.625,2.484375 -0.75,3 -0.015625,0.046875 -0.40625,0.84375 -1.140625,0.84375 -0.515625,0 -0.609375,-0.453125 -0.609375,-0.8125 0,-0.5625 0.28125,-1.34375 0.53125,-2.03125 0.125,-0.3125 0.171875,-0.453125 0.171875,-0.640625 0,-0.4375 -0.3125,-0.8125 -0.8125,-0.8125 -0.953125,0 -1.3125,1.453125 -1.3125,1.53125 0,0.109375 0.09375,0.109375 0.109375,0.109375 0.109375,0 0.109375,-0.03125 0.15625,-0.1875 0.25,-0.859375 0.640625,-1.234375 1.015625,-1.234375 0.09375,0 0.25,0.015625 0.25,0.328125 0,0.234375 -0.109375,0.53125 -0.171875,0.671875 -0.375,1 -0.578125,1.609375 -0.578125,2.09375 0,0.953125 0.6875,1.203125 1.21875,1.203125 0.65625,0 1.015625,-0.453125 1.1875,-0.671875 z m 0,0"
                 id="id-aa67f574-f8a6-4f32-a59f-22819307ef83" />
            </g>
          </g>
          <g
             style="fill:#000000;fill-opacity:1"
             id="id-fccf5806-51cd-4abb-93fa-16486b0055ec">
            <g
               transform="translate(154.415,136.259)"
               id="g44">
              <path
                 style="stroke:none;stroke-width:0"
                 d="M 3.875,-2.625 C 3.90625,-2.71875 3.90625,-2.734375 3.90625,-2.78125 3.90625,-2.921875 3.796875,-3 3.671875,-3 3.59375,-3 3.46875,-2.96875 3.390625,-2.84375 3.359375,-2.796875 3.3125,-2.578125 3.28125,-2.4375 L 3.125,-1.859375 c -0.03125,0.171875 -0.25,1.046875 -0.28125,1.125 0,0 -0.3125,0.609375 -0.84375,0.609375 -0.484375,0 -0.484375,-0.453125 -0.484375,-0.578125 0,-0.375 0.15625,-0.8125 0.375,-1.359375 C 1.96875,-2.28125 2,-2.359375 2,-2.484375 2,-2.8125 1.71875,-3.078125 1.34375,-3.078125 0.640625,-3.078125 0.328125,-2.125 0.328125,-2 c 0,0.078125 0.09375,0.078125 0.125,0.078125 0.09375,0 0.09375,-0.03125 0.125,-0.109375 C 0.75,-2.609375 1.046875,-2.875 1.328125,-2.875 1.4375,-2.875 1.5,-2.796875 1.5,-2.640625 c 0,0.171875 -0.0625,0.3125 -0.09375,0.40625 C 1.0625,-1.375 1,-1.125 1,-0.8125 1,-0.703125 1,-0.375 1.265625,-0.140625 1.484375,0.03125 1.78125,0.0625 1.96875,0.0625 2.25,0.0625 2.5,-0.03125 2.71875,-0.25 2.640625,0.140625 2.5625,0.4375 2.265625,0.78125 2.078125,1 1.796875,1.21875 1.421875,1.21875 c -0.046875,0 -0.375,0 -0.515625,-0.21875 0.375,-0.046875 0.375,-0.375 0.375,-0.390625 0,-0.21875 -0.203125,-0.265625 -0.265625,-0.265625 -0.171875,0 -0.40625,0.140625 -0.40625,0.46875 0,0.34375 0.328125,0.609375 0.828125,0.609375 C 2.140625,1.421875 3,0.875 3.21875,0 Z m 0,0"
                 id="id-fa8a4652-441d-4fda-9e33-a98bacf11018" />
            </g>
          </g>
        </g>
      </g>
    </g>
  </g>
</svg>
