<?xml version="1.0" encoding="UTF-8" standalone="no"?>
<!-- Created with Inkscape (http://www.inkscape.org/) -->

<svg
   width="103.14125mm"
   height="45.564964mm"
   viewBox="0 0 103.14125 45.564964"
   version="1.1"
   id="svg5"
   sodipodi:docname="1D_bar_bf_data.svg"
   inkscape:version="1.1.2 (0a00cf5339, 2022-02-04)"
   xmlns:inkscape="http://www.inkscape.org/namespaces/inkscape"
   xmlns:sodipodi="http://sodipodi.sourceforge.net/DTD/sodipodi-0.dtd"
   xmlns="http://www.w3.org/2000/svg"
   xmlns:svg="http://www.w3.org/2000/svg"
   xmlns:ns1="http://www.iki.fi/pav/software/textext/">
  <sodipodi:namedview
     id="namedview7"
     pagecolor="#505050"
     bordercolor="#eeeeee"
     borderopacity="1"
     inkscape:pageshadow="0"
     inkscape:pageopacity="0"
     inkscape:pagecheckerboard="0"
     inkscape:document-units="mm"
     showgrid="false"
     inkscape:zoom="2.5620932"
     inkscape:cx="215.83914"
     inkscape:cy="8.9770348"
     inkscape:window-width="1920"
     inkscape:window-height="1043"
     inkscape:window-x="1920"
     inkscape:window-y="0"
     inkscape:window-maximized="1"
     inkscape:current-layer="layer1"
     fit-margin-top="0"
     fit-margin-left="0"
     fit-margin-right="0"
     fit-margin-bottom="0" />
  <defs
     id="defs2">
    <marker
       style="overflow:visible;"
       id="Arrow1Lend"
       refX="0.0"
       refY="0.0"
       orient="auto"
       inkscape:stockid="Arrow1Lend"
       inkscape:isstock="true">
      <path
         transform="scale(0.8) rotate(180) translate(12.5,0)"
         style="fill-rule:evenodd;fill:context-stroke;stroke:context-stroke;stroke-width:1.0pt;"
         d="M 0.0,0.0 L 5.0,-5.0 L -12.5,0.0 L 5.0,5.0 L 0.0,0.0 z "
         id="path1055" />
    </marker>
    <marker
       style="overflow:visible"
       id="Arrow1Lend-6"
       refX="0"
       refY="0"
       orient="auto"
       inkscape:stockid="Arrow1Lend"
       inkscape:isstock="true">
      <path
         transform="matrix(-0.8,0,0,-0.8,-10,0)"
         style="fill:context-stroke;fill-rule:evenodd;stroke:context-stroke;stroke-width:1pt"
         d="M 0,0 5,-5 -12.5,0 5,5 Z"
         id="path1055-2" />
    </marker>
    <marker
       style="overflow:visible"
       id="Arrow1Lend-6-7"
       refX="0"
       refY="0"
       orient="auto"
       inkscape:stockid="Arrow1Lend"
       inkscape:isstock="true">
      <path
         transform="matrix(-0.8,0,0,-0.8,-10,0)"
         style="fill:context-stroke;fill-rule:evenodd;stroke:context-stroke;stroke-width:1pt"
         d="M 0,0 5,-5 -12.5,0 5,5 Z"
         id="path1055-2-9" />
    </marker>
    <marker
       style="overflow:visible"
       id="Arrow1Lend-6-7-9"
       refX="0"
       refY="0"
       orient="auto"
       inkscape:stockid="Arrow1Lend"
       inkscape:isstock="true">
      <path
         transform="matrix(-0.8,0,0,-0.8,-10,0)"
         style="fill:context-stroke;fill-rule:evenodd;stroke:context-stroke;stroke-width:1pt"
         d="M 0,0 5,-5 -12.5,0 5,5 Z"
         id="path1055-2-9-2" />
    </marker>
    <marker
       style="overflow:visible"
       id="Arrow1Lend-6-8"
       refX="0"
       refY="0"
       orient="auto"
       inkscape:stockid="Arrow1Lend"
       inkscape:isstock="true">
      <path
         transform="matrix(-0.8,0,0,-0.8,-10,0)"
         style="fill:context-stroke;fill-rule:evenodd;stroke:context-stroke;stroke-width:1pt"
         d="M 0,0 5,-5 -12.5,0 5,5 Z"
         id="path1055-2-3" />
    </marker>
    <marker
       style="overflow:visible"
       id="Arrow1Lend-0"
       refX="0"
       refY="0"
       orient="auto"
       inkscape:stockid="Arrow1Lend"
       inkscape:isstock="true">
      <path
         transform="matrix(-0.8,0,0,-0.8,-10,0)"
         style="fill:context-stroke;fill-rule:evenodd;stroke:context-stroke;stroke-width:1pt"
         d="M 0,0 5,-5 -12.5,0 5,5 Z"
         id="path1055-1" />
    </marker>
    <marker
       style="overflow:visible"
       id="Arrow1Lend-6-7-1"
       refX="0"
       refY="0"
       orient="auto"
       inkscape:stockid="Arrow1Lend"
       inkscape:isstock="true">
      <path
         transform="matrix(-0.8,0,0,-0.8,-10,0)"
         style="fill:context-stroke;fill-rule:evenodd;stroke:context-stroke;stroke-width:1pt"
         d="M 0,0 5,-5 -12.5,0 5,5 Z"
         id="path1055-2-9-5" />
    </marker>
    <marker
       style="overflow:visible"
       id="Arrow1Lend-6-4"
       refX="0"
       refY="0"
       orient="auto"
       inkscape:stockid="Arrow1Lend"
       inkscape:isstock="true">
      <path
         transform="matrix(-0.8,0,0,-0.8,-10,0)"
         style="fill:context-stroke;fill-rule:evenodd;stroke:context-stroke;stroke-width:1pt"
         d="M 0,0 5,-5 -12.5,0 5,5 Z"
         id="path1055-2-92" />
    </marker>
    <marker
       style="overflow:visible"
       id="Arrow1Lend-5"
       refX="0"
       refY="0"
       orient="auto"
       inkscape:stockid="Arrow1Lend"
       inkscape:isstock="true">
      <path
         transform="matrix(-0.8,0,0,-0.8,-10,0)"
         style="fill:context-stroke;fill-rule:evenodd;stroke:context-stroke;stroke-width:1pt"
         d="M 0,0 5,-5 -12.5,0 5,5 Z"
         id="path1055-7" />
    </marker>
  </defs>
  <g
     inkscape:label="Layer 1"
     inkscape:groupmode="layer"
     id="layer1"
     transform="translate(-19.7737, -216.619)">
    <rect
       style="fill:none;stroke:#000000;stroke-width:0.545;stroke-linecap:round;stroke-miterlimit:4;stroke-dasharray:none;stroke-opacity:1"
       id="rect31"
       width="7.8920183"
       height="6.7917619"
       x="20.046227"
       y="255.11983"
       ry="0" />
    <rect
       style="fill:none;stroke:#000000;stroke-width:0.545;stroke-linecap:round;stroke-miterlimit:4;stroke-dasharray:none;stroke-opacity:1"
       id="rect31-0"
       width="7.8920183"
       height="6.7917619"
       x="114.75046"
       y="255.11984"
       ry="0" />
    <rect
       style="fill:none;stroke:#000000;stroke-width:0.545;stroke-linecap:round;stroke-miterlimit:4;stroke-dasharray:none;stroke-opacity:1"
       id="rect31-3"
       width="7.8920183"
       height="6.7917619"
       x="27.938244"
       y="255.11983"
       ry="0" />
    <rect
       style="fill:none;stroke:#000000;stroke-width:0.545;stroke-linecap:round;stroke-miterlimit:4;stroke-dasharray:none;stroke-opacity:1"
       id="rect31-6"
       width="7.8920183"
       height="6.7917619"
       x="35.830261"
       y="255.11983"
       ry="0" />
    <rect
       style="fill:none;stroke:#000000;stroke-width:0.545;stroke-linecap:round;stroke-miterlimit:4;stroke-dasharray:none;stroke-opacity:1"
       id="rect31-3-7"
       width="7.8920183"
       height="6.7917619"
       x="43.722282"
       y="255.11983"
       ry="0" />
    <rect
       style="fill:none;stroke:#000000;stroke-width:0.545;stroke-linecap:round;stroke-miterlimit:4;stroke-dasharray:none;stroke-opacity:1"
       id="rect31-5"
       width="7.8920183"
       height="6.7917619"
       x="51.6143"
       y="255.11984"
       ry="0" />
    <rect
       style="fill:none;stroke:#000000;stroke-width:0.545;stroke-linecap:round;stroke-miterlimit:4;stroke-dasharray:none;stroke-opacity:1"
       id="rect31-3-3"
       width="7.8920183"
       height="6.7917619"
       x="59.506317"
       y="255.11984"
       ry="0" />
    <rect
       style="fill:none;stroke:#000000;stroke-width:0.545;stroke-linecap:round;stroke-miterlimit:4;stroke-dasharray:none;stroke-opacity:1"
       id="rect31-6-5"
       width="7.8920183"
       height="6.7917619"
       x="67.398331"
       y="255.11984"
       ry="0" />
    <rect
       style="fill:none;stroke:#000000;stroke-width:0.545;stroke-linecap:round;stroke-miterlimit:4;stroke-dasharray:none;stroke-opacity:1"
       id="rect31-3-7-6"
       width="7.8920183"
       height="6.7917619"
       x="75.290359"
       y="255.11984"
       ry="0" />
    <rect
       style="fill:none;stroke:#000000;stroke-width:0.545;stroke-linecap:round;stroke-miterlimit:4;stroke-dasharray:none;stroke-opacity:1"
       id="rect31-5-2"
       width="7.8920183"
       height="6.7917619"
       x="83.182381"
       y="255.11984"
       ry="0" />
    <rect
       style="fill:none;stroke:#000000;stroke-width:0.545;stroke-linecap:round;stroke-miterlimit:4;stroke-dasharray:none;stroke-opacity:1"
       id="rect31-3-3-9"
       width="7.8920183"
       height="6.7917619"
       x="91.074402"
       y="255.11984"
       ry="0" />
    <rect
       style="fill:none;stroke:#000000;stroke-width:0.545;stroke-linecap:round;stroke-miterlimit:4;stroke-dasharray:none;stroke-opacity:1"
       id="rect31-6-5-1"
       width="7.8920183"
       height="6.7917619"
       x="98.966415"
       y="255.11984"
       ry="0" />
    <rect
       style="fill:none;stroke:#000000;stroke-width:0.545;stroke-linecap:round;stroke-miterlimit:4;stroke-dasharray:none;stroke-opacity:1"
       id="rect31-3-7-6-2"
       width="7.8920183"
       height="6.7917619"
       x="106.85844"
       y="255.11984"
       ry="0" />
    <path
       style="fill:#ff0000;stroke:#000000;stroke-width:0.3076;stroke-linecap:round;stroke-miterlimit:4;stroke-dasharray:none;stroke-opacity:1"
       d="m 67.597365,258.54759 v -3.1283 h 3.667634 3.667633 v 3.1283 3.12828 h -3.667633 -3.667634 z"
       id="path1425" />
    <path
       style="fill:#ff0000;stroke:#000000;stroke-width:0.300826;stroke-linecap:round;stroke-miterlimit:4;stroke-dasharray:none;stroke-opacity:1"
       d="m 28.332461,258.49719 v -3.06692 h 3.578067 3.578068 v 3.06692 3.06692 h -3.578068 -3.578067 z"
       id="path1464" />
    <path
       style="fill:#ff0000;stroke:#000000;stroke-width:0.300826;stroke-linecap:round;stroke-miterlimit:4;stroke-dasharray:none;stroke-opacity:1"
       d="m 36.218815,258.49719 v -3.06692 h 3.578069 3.578068 v 3.06692 3.06692 h -3.578068 -3.578069 z"
       id="path1503" />
    <path
       style="fill:#ff0000;stroke:#000000;stroke-width:0.300826;stroke-linecap:round;stroke-miterlimit:4;stroke-dasharray:none;stroke-opacity:1"
       d="m 107.14726,258.51679 v -3.06692 h 3.57807 3.57807 v 3.06692 3.06692 h -3.57807 -3.57807 z"
       id="path1581" />
    <path
       style="fill:#ff0000;stroke:#000000;stroke-width:0.300826;stroke-linecap:round;stroke-miterlimit:4;stroke-dasharray:none;stroke-opacity:1"
       d="m 99.260857,258.51679 v -3.06692 h 3.578093 3.57809 v 3.06692 3.06692 h -3.57809 -3.578093 z"
       id="path1620" />
    <path
       style="fill:#ff0000;stroke:#000000;stroke-width:0.300826;stroke-linecap:round;stroke-miterlimit:4;stroke-dasharray:none;stroke-opacity:1"
       d="m 91.374498,258.51679 v -3.06692 h 3.578069 3.57807 v 3.06692 3.06692 h -3.57807 -3.578069 z"
       id="path1659" />
    <path
       style="fill:#ff0000;stroke:#000000;stroke-width:0.300826;stroke-linecap:round;stroke-miterlimit:4;stroke-dasharray:none;stroke-opacity:1"
       d="m 44.105171,258.49719 v -3.06692 h 3.578068 3.578069 v 3.06692 3.06692 h -3.578069 -3.578068 z"
       id="path1698" />
    <path
       style="fill:#ff0000;stroke:#000000;stroke-width:0.300826;stroke-linecap:round;stroke-miterlimit:4;stroke-dasharray:none;stroke-opacity:1"
       d="m 51.991524,258.49719 v -3.06692 h 3.578069 3.578069 v 3.06692 3.06692 h -3.578069 -3.578069 z"
       id="path1737" />
    <path
       style="fill:#ff0000;stroke:#000000;stroke-width:0.300826;stroke-linecap:round;stroke-miterlimit:4;stroke-dasharray:none;stroke-opacity:1"
       d="m 83.488142,258.51679 v -3.06692 h 3.578069 3.578068 v 3.06692 3.06692 h -3.578068 -3.578069 z"
       id="path1776" />
    <path
       style="fill:#ff0000;stroke:#000000;stroke-width:0.300826;stroke-linecap:round;stroke-miterlimit:4;stroke-dasharray:none;stroke-opacity:1"
       d="m 75.601788,258.51679 v -3.06692 h 3.578069 3.578067 v 3.06692 3.06692 h -3.578067 -3.578069 z"
       id="path1815" />
    <path
       style="fill:#ff0000;stroke:#000000;stroke-width:0.300826;stroke-linecap:round;stroke-miterlimit:4;stroke-dasharray:none;stroke-opacity:1"
       d="m 59.87788,258.49719 v -3.06692 h 3.578069 3.578069 v 3.06692 3.06692 H 63.455949 59.87788 Z"
       id="path1854" />
    <path
       style="fill:#0000ff;stroke:#000000;stroke-width:0.150413;stroke-linecap:round;stroke-miterlimit:4;stroke-dasharray:none;stroke-opacity:1"
       d="m 20.349121,258.45973 v -3.10343 h 3.651091 3.651089 v 3.10343 3.10343 h -3.651089 -3.651091 z"
       id="path2127" />
    <path
       style="fill:#ff0000;stroke:#000000;stroke-width:0.0531791;stroke-linecap:round;stroke-miterlimit:4;stroke-dasharray:none;stroke-opacity:1"
       d="m 115.04103,258.5196 v -3.11096 h 3.65312 3.65312 v 3.11096 3.11096 h -3.65312 -3.65312 z"
       id="path2454" />
    <path
       style="fill:none;stroke:#000000;stroke-width:0.264583px;stroke-linecap:butt;stroke-linejoin:miter;stroke-opacity:1"
       d="M 23.190392,246.74842 H 61.065335"
       id="path2636"
       sodipodi:nodetypes="cc" />
    <path
       style="fill:none;stroke:#000000;stroke-width:0.264583px;stroke-linecap:butt;stroke-linejoin:miter;stroke-opacity:1"
       d="M 27.166529,250.1431 V 216.61914"
       id="path2831" />
    <path
       style="fill:#ff0000;stroke:#ff0000;stroke-width:0.264583px;stroke-linecap:butt;stroke-linejoin:miter;stroke-opacity:1"
       d="m 27.191114,246.7999 4.004898,-25.86619"
       id="path2833" />
    <path
       style="fill:none;stroke:#0000ff;stroke-width:0.264583px;stroke-linecap:butt;stroke-linejoin:miter;stroke-opacity:1"
       d="m 31.196012,220.93371 27.422646,25.84204"
       id="path2967" />
    <g
       transform="matrix(0.529167,0,0,0.529167,22.319653,231.29951)"
       ns1:version="1.8.2"
       ns1:texconverter="pdflatex"
       ns1:pdfconverter="inkscape"
       ns1:text="$\\sigma$"
       ns1:preamble="/home/vkamasamud2016/.config/inkscape/extensions/textext/default_packages.tex"
       ns1:scale="1.5"
       ns1:alignment="middle center"
       ns1:stroke-to-path="0"
       ns1:jacobian_sqrt="0.529167"
       id="g3161">
      <defs
         id="id-3d23f749-8209-40c9-97e6-cbb699bd203b">
        <g
           id="id-80e8a7cd-95f1-4135-8286-dc6f0be57282">
          <symbol
             overflow="visible"
             id="id-ebe9495a-524f-4f05-8d86-ab7412e2e0e7">
            <path
               style="stroke:none;stroke-width:0"
               d=""
               id="id-a088fa25-690f-4061-8953-365ed7f6ad64" />
          </symbol>
          <symbol
             overflow="visible"
             id="id-e3ba3327-2ddb-47c2-9b6a-e1cf98f4475c">
            <path
               style="stroke:none;stroke-width:0"
               d="m 5.15625,-3.71875 c 0.140625,0 0.5,0 0.5,-0.34375 0,-0.234375 -0.21875,-0.234375 -0.390625,-0.234375 h -2.28125 c -1.5,0 -2.609375,1.640625 -2.609375,2.828125 0,0.875 0.59375,1.578125 1.5,1.578125 1.171875,0 2.5,-1.203125 2.5,-2.734375 0,-0.171875 0,-0.65625 -0.3125,-1.09375 z M 1.890625,-0.109375 C 1.390625,-0.109375 1,-0.46875 1,-1.1875 c 0,-0.296875 0.109375,-1.109375 0.46875,-1.703125 0.421875,-0.6875 1.015625,-0.828125 1.359375,-0.828125 0.828125,0 0.90625,0.65625 0.90625,0.96875 0,0.46875 -0.203125,1.28125 -0.53125,1.796875 -0.390625,0.578125 -0.9375,0.84375 -1.3125,0.84375 z m 0,0"
               id="id-52bb44a1-6c58-4dff-9caf-8c6558cb04ec" />
          </symbol>
        </g>
      </defs>
      <g
         id="id-da867f84-10e7-45f5-b5a0-5c87a2fcd131"
         transform="translate(-149.087,-130.468)">
        <g
           style="fill:#000000;fill-opacity:1"
           id="id-d78bf65d-7695-4c20-a4a4-0fa3fb44908d">
          <g
             transform="translate(148.712,134.765)"
             id="g3157">
            <path
               style="stroke:none;stroke-width:0"
               d="m 5.15625,-3.71875 c 0.140625,0 0.5,0 0.5,-0.34375 0,-0.234375 -0.21875,-0.234375 -0.390625,-0.234375 h -2.28125 c -1.5,0 -2.609375,1.640625 -2.609375,2.828125 0,0.875 0.59375,1.578125 1.5,1.578125 1.171875,0 2.5,-1.203125 2.5,-2.734375 0,-0.171875 0,-0.65625 -0.3125,-1.09375 z M 1.890625,-0.109375 C 1.390625,-0.109375 1,-0.46875 1,-1.1875 c 0,-0.296875 0.109375,-1.109375 0.46875,-1.703125 0.421875,-0.6875 1.015625,-0.828125 1.359375,-0.828125 0.828125,0 0.90625,0.65625 0.90625,0.96875 0,0.46875 -0.203125,1.28125 -0.53125,1.796875 -0.390625,0.578125 -0.9375,0.84375 -1.3125,0.84375 z m 0,0"
               id="id-46c93e24-6ca4-4062-a210-ef2a47629dff" />
          </g>
        </g>
      </g>
    </g>
    <g
       transform="matrix(0.529167,0,0,0.529167,42.377052,248.42225)"
       ns1:version="1.8.2"
       ns1:texconverter="pdflatex"
       ns1:pdfconverter="inkscape"
       ns1:text="$\\epsilon$"
       ns1:preamble="/home/vkamasamud2016/.config/inkscape/extensions/textext/default_packages.tex"
       ns1:scale="1.5"
       ns1:alignment="middle center"
       ns1:stroke-to-path="0"
       ns1:jacobian_sqrt="0.529167"
       id="g3295">
      <defs
         id="id-072d8590-316d-4d53-8522-55a86b386a5e">
        <g
           id="id-d392b4ee-8401-4bdc-a8f5-130b2b89914c">
          <symbol
             overflow="visible"
             id="id-9c31eafb-7072-4074-9e60-00fb5b25d8b0">
            <path
               style="stroke:none;stroke-width:0"
               d=""
               id="id-c63e5b8e-855d-4a15-b823-c5feac9d513d" />
          </symbol>
          <symbol
             overflow="visible"
             id="id-77f6a70b-961d-451e-9f16-30f753fbcc2b">
            <path
               style="stroke:none;stroke-width:0"
               d="m 2.96875,-2.25 c 0.15625,0 0.34375,0 0.34375,-0.171875 C 3.3125,-2.5625 3.1875,-2.5625 3.015625,-2.5625 H 1.40625 c 0.234375,-0.84375 0.796875,-1.421875 1.703125,-1.421875 h 0.3125 c 0.171875,0 0.328125,0 0.328125,-0.171875 0,-0.140625 -0.125,-0.140625 -0.296875,-0.140625 H 3.09375 c -1.296875,0 -2.625,1 -2.625,2.515625 0,1.109375 0.75,1.890625 1.796875,1.890625 0.65625,0 1.296875,-0.40625 1.296875,-0.515625 0,-0.015625 0,-0.125 -0.09375,-0.125 -0.015625,0 -0.046875,0 -0.125,0.046875 -0.3125,0.203125 -0.6875,0.375 -1.046875,0.375 -0.578125,0 -1.078125,-0.421875 -1.078125,-1.296875 0,-0.34375 0.078125,-0.734375 0.109375,-0.84375 z m 0,0"
               id="id-a73c0f93-dbca-4b25-b84e-465e743da1dd" />
          </symbol>
        </g>
      </defs>
      <g
         id="id-a4120778-13b1-4714-86b5-11ff9c255e95"
         transform="translate(-149.181,-130.468)">
        <g
           style="fill:#000000;fill-opacity:1"
           id="id-311d8580-faff-45ad-bf81-f0f78768ba30">
          <g
             transform="translate(148.712,134.765)"
             id="g3291">
            <path
               style="stroke:none;stroke-width:0"
               d="m 2.96875,-2.25 c 0.15625,0 0.34375,0 0.34375,-0.171875 C 3.3125,-2.5625 3.1875,-2.5625 3.015625,-2.5625 H 1.40625 c 0.234375,-0.84375 0.796875,-1.421875 1.703125,-1.421875 h 0.3125 c 0.171875,0 0.328125,0 0.328125,-0.171875 0,-0.140625 -0.125,-0.140625 -0.296875,-0.140625 H 3.09375 c -1.296875,0 -2.625,1 -2.625,2.515625 0,1.109375 0.75,1.890625 1.796875,1.890625 0.65625,0 1.296875,-0.40625 1.296875,-0.515625 0,-0.015625 0,-0.125 -0.09375,-0.125 -0.015625,0 -0.046875,0 -0.125,0.046875 -0.3125,0.203125 -0.6875,0.375 -1.046875,0.375 -0.578125,0 -1.078125,-0.421875 -1.078125,-1.296875 0,-0.34375 0.078125,-0.734375 0.109375,-0.84375 z m 0,0"
               id="id-5f78e399-0757-407f-9772-bb75f7e56839" />
          </g>
        </g>
      </g>
    </g>
    <g
       id="g1875"
       transform="translate(-5.2916669)">
      <rect
         style="opacity:0.928952;fill:none;stroke:#000000;stroke-width:0.365;stroke-linecap:round;stroke-linejoin:round;stroke-miterlimit:4;stroke-dasharray:none;paint-order:markers stroke fill"
         id="rect895"
         width="49.665806"
         height="4.5744166"
         x="68.878105"
         y="228.4039" />
      <path
         style="fill:none;stroke:#000000;stroke-width:0.085;stroke-linecap:butt;stroke-linejoin:miter;stroke-miterlimit:4;stroke-dasharray:none;stroke-opacity:1;marker-end:url(#Arrow1Lend)"
         d="m 71.330302,230.66979 h 3.551433"
         id="path1050" />
      <path
         style="fill:none;stroke:#000000;stroke-width:0.085;stroke-linecap:butt;stroke-linejoin:miter;stroke-miterlimit:4;stroke-dasharray:none;stroke-opacity:1;marker-end:url(#Arrow1Lend-6)"
         d="m 76.513303,230.68849 h 3.551433"
         id="path1050-4" />
      <path
         style="fill:none;stroke:#000000;stroke-width:0.085;stroke-linecap:butt;stroke-linejoin:miter;stroke-miterlimit:4;stroke-dasharray:none;stroke-opacity:1;marker-end:url(#Arrow1Lend-6-7)"
         d="M 81.388787,230.68688 H 84.94022"
         id="path1050-4-3" />
      <path
         style="fill:none;stroke:#000000;stroke-width:0.085;stroke-linecap:butt;stroke-linejoin:miter;stroke-miterlimit:4;stroke-dasharray:none;stroke-opacity:1;marker-end:url(#Arrow1Lend-0)"
         d="m 86.951255,230.72991 h 3.551433"
         id="path1050-7" />
      <path
         style="fill:none;stroke:#000000;stroke-width:0.085;stroke-linecap:butt;stroke-linejoin:miter;stroke-miterlimit:4;stroke-dasharray:none;stroke-opacity:1;marker-end:url(#Arrow1Lend-6-8)"
         d="m 92.134256,230.74861 h 3.551433"
         id="path1050-4-8" />
      <path
         style="fill:none;stroke:#000000;stroke-width:0.085;stroke-linecap:butt;stroke-linejoin:miter;stroke-miterlimit:4;stroke-dasharray:none;stroke-opacity:1;marker-end:url(#Arrow1Lend-6-7-9)"
         d="m 97.00974,230.747 h 3.55144"
         id="path1050-4-3-9" />
      <path
         style="fill:none;stroke:#000000;stroke-width:0.085;stroke-linecap:butt;stroke-linejoin:miter;stroke-miterlimit:4;stroke-dasharray:none;stroke-opacity:1;marker-end:url(#Arrow1Lend-5)"
         d="m 102.00076,230.72638 h 3.55143"
         id="path1050-49" />
      <path
         style="fill:none;stroke:#000000;stroke-width:0.085;stroke-linecap:butt;stroke-linejoin:miter;stroke-miterlimit:4;stroke-dasharray:none;stroke-opacity:1;marker-end:url(#Arrow1Lend-6-4)"
         d="m 107.18376,230.74508 h 3.55143"
         id="path1050-4-9" />
      <path
         style="fill:none;stroke:#000000;stroke-width:0.085;stroke-linecap:butt;stroke-linejoin:miter;stroke-miterlimit:4;stroke-dasharray:none;stroke-opacity:1;marker-end:url(#Arrow1Lend-6-7-1)"
         d="m 112.05925,230.74347 h 3.55143"
         id="path1050-4-3-4" />
      <path
         style="fill:none;stroke:#000000;stroke-width:0.165;stroke-linecap:butt;stroke-linejoin:miter;stroke-miterlimit:4;stroke-dasharray:none;stroke-opacity:1"
         d="m 68.878103,228.4039 -1.125304,0.53315"
         id="path1663" />
      <path
         style="fill:none;stroke:#000000;stroke-width:0.165;stroke-linecap:butt;stroke-linejoin:miter;stroke-miterlimit:4;stroke-dasharray:none;stroke-opacity:1"
         d="m 68.916085,228.99556 -1.125304,0.53315"
         id="path1663-5" />
      <path
         style="fill:none;stroke:#000000;stroke-width:0.165;stroke-linecap:butt;stroke-linejoin:miter;stroke-miterlimit:4;stroke-dasharray:none;stroke-opacity:1"
         d="m 68.932361,229.56495 -1.125304,0.53315"
         id="path1663-5-9" />
      <path
         style="fill:none;stroke:#000000;stroke-width:0.165;stroke-linecap:butt;stroke-linejoin:miter;stroke-miterlimit:4;stroke-dasharray:none;stroke-opacity:1"
         d="m 68.94622,230.14 -1.125304,0.53315"
         id="path1663-5-3" />
      <path
         style="fill:none;stroke:#000000;stroke-width:0.165;stroke-linecap:butt;stroke-linejoin:miter;stroke-miterlimit:4;stroke-dasharray:none;stroke-opacity:1"
         d="m 68.892279,230.708 -1.125304,0.53315"
         id="path1663-57" />
      <path
         style="fill:none;stroke:#000000;stroke-width:0.165;stroke-linecap:butt;stroke-linejoin:miter;stroke-miterlimit:4;stroke-dasharray:none;stroke-opacity:1"
         d="m 68.930261,231.29966 -1.125304,0.53315"
         id="path1663-5-0" />
      <path
         style="fill:none;stroke:#000000;stroke-width:0.165;stroke-linecap:butt;stroke-linejoin:miter;stroke-miterlimit:4;stroke-dasharray:none;stroke-opacity:1"
         d="m 68.946537,231.86905 -1.125304,0.53315"
         id="path1663-5-9-8" />
      <path
         style="fill:none;stroke:#000000;stroke-width:0.165;stroke-linecap:butt;stroke-linejoin:miter;stroke-miterlimit:4;stroke-dasharray:none;stroke-opacity:1"
         d="m 68.960396,232.4441 -1.125304,0.53315"
         id="path1663-5-3-1" />
    </g>
    <path
       style="fill:none;stroke:#000000;stroke-width:0.165;stroke-linecap:butt;stroke-linejoin:miter;stroke-miterlimit:4;stroke-dasharray:none;stroke-opacity:1;marker-end:url(#Arrow1Lend)"
       d="m 114.10931,230.74706 h 4.72497"
       id="path1910" />
    <path
       style="fill:none;stroke:#000000;stroke-width:0.308064px;stroke-linecap:butt;stroke-linejoin:miter;stroke-opacity:1"
       d="m 114.09763,228.31107 v 4.80723"
       id="path2025" />
    <g
       transform="matrix(0.529167 0 0 0.529167 115.283 231.873)"
       ns1:version="1.8.2"
       ns1:texconverter="pdflatex"
       ns1:pdfconverter="inkscape"
       ns1:text="$u_d$"
       ns1:preamble="/home/vkamasamud2016/.config/inkscape/extensions/textext/default_packages.tex"
       ns1:scale="1.5"
       ns1:alignment="middle center"
       ns1:stroke-to-path="0"
       ns1:inkscapeversion="1.1.2"
       ns1:jacobian_sqrt="0.529167"
       id="g2314">
      <defs
         id="id-11d701cf-52f7-4493-9321-b301052c5440">
        <g
           id="id-af5f2594-2ce6-4b89-bc9d-e88e1640f21b">
          <symbol
             overflow="visible"
             id="id-d34860c7-39da-4a2e-8746-e2f0d106cf10">
            <path
               style="stroke:none"
               d=""
               id="id-22fabb7a-7e9f-4fd1-a6c7-93be5654d5dd" />
          </symbol>
          <symbol
             overflow="visible"
             id="id-630e8e06-d32b-47b7-b60f-1a7158923232">
            <path
               style="stroke:none"
               d="M 3.484375,-0.5625 C 3.59375,-0.15625 3.953125,0.109375 4.375,0.109375 4.71875,0.109375 4.953125,-0.125 5.109375,-0.4375 5.28125,-0.796875 5.40625,-1.40625 5.40625,-1.421875 c 0,-0.109375 -0.078125,-0.109375 -0.109375,-0.109375 -0.109375,0 -0.109375,0.046875 -0.140625,0.1875 -0.140625,0.5625 -0.328125,1.234375 -0.75,1.234375 -0.203125,0 -0.3125,-0.125 -0.3125,-0.453125 0,-0.21875 0.125,-0.6875 0.203125,-1.046875 L 4.578125,-2.6875 C 4.609375,-2.828125 4.703125,-3.203125 4.75,-3.359375 4.796875,-3.59375 4.890625,-3.96875 4.890625,-4.03125 c 0,-0.171875 -0.140625,-0.265625 -0.28125,-0.265625 -0.046875,0 -0.3125,0.015625 -0.390625,0.34375 -0.1875,0.734375 -0.625,2.484375 -0.75,3 -0.015625,0.046875 -0.40625,0.84375 -1.140625,0.84375 -0.515625,0 -0.609375,-0.453125 -0.609375,-0.8125 0,-0.5625 0.28125,-1.34375 0.53125,-2.03125 0.125,-0.3125 0.171875,-0.453125 0.171875,-0.640625 0,-0.4375 -0.3125,-0.8125 -0.8125,-0.8125 -0.953125,0 -1.3125,1.453125 -1.3125,1.53125 0,0.109375 0.09375,0.109375 0.109375,0.109375 0.109375,0 0.109375,-0.03125 0.15625,-0.1875 0.25,-0.859375 0.640625,-1.234375 1.015625,-1.234375 0.09375,0 0.25,0.015625 0.25,0.328125 0,0.234375 -0.109375,0.53125 -0.171875,0.671875 -0.375,1 -0.578125,1.609375 -0.578125,2.09375 0,0.953125 0.6875,1.203125 1.21875,1.203125 0.65625,0 1.015625,-0.453125 1.1875,-0.671875 z m 0,0"
               id="id-2223b226-33d8-4138-9f6b-a532c76e2f0b" />
          </symbol>
          <symbol
             overflow="visible"
             id="id-44162828-0340-40dc-902f-41ca1f779e7d">
            <path
               style="stroke:none"
               d=""
               id="id-d6c816dd-99df-438f-8617-01291afbb643" />
          </symbol>
          <symbol
             overflow="visible"
             id="id-4070e5ee-c2f2-40ff-88dc-37b8c0dfb5bc">
            <path
               style="stroke:none"
               d="M 3.984375,-4.625 C 3.984375,-4.640625 4,-4.734375 4,-4.734375 4,-4.78125 3.984375,-4.84375 3.890625,-4.84375 3.75,-4.84375 3.171875,-4.78125 3,-4.765625 c -0.046875,0 -0.15625,0.015625 -0.15625,0.15625 0,0.09375 0.109375,0.09375 0.1875,0.09375 0.328125,0 0.328125,0.0625 0.328125,0.109375 0,0.046875 0,0.09375 -0.015625,0.15625 L 2.9375,-2.65625 c -0.140625,-0.234375 -0.375,-0.421875 -0.71875,-0.421875 -0.890625,0 -1.796875,0.984375 -1.796875,1.984375 0,0.6875 0.453125,1.15625 1.0625,1.15625 0.375,0 0.703125,-0.203125 0.984375,-0.484375 C 2.59375,0 3,0.0625 3.1875,0.0625 c 0.25,0 0.421875,-0.140625 0.546875,-0.359375 0.15625,-0.28125 0.25,-0.671875 0.25,-0.703125 0,-0.09375 -0.09375,-0.09375 -0.109375,-0.09375 -0.109375,0 -0.109375,0.03125 -0.15625,0.21875 C 3.625,-0.53125 3.5,-0.125 3.203125,-0.125 3.03125,-0.125 2.96875,-0.28125 2.96875,-0.46875 c 0,-0.125 0.015625,-0.1875 0.046875,-0.28125 z M 2.5,-0.875 C 2.453125,-0.671875 2.296875,-0.53125 2.140625,-0.40625 2.078125,-0.34375 1.796875,-0.125 1.5,-0.125 c -0.265625,0 -0.515625,-0.1875 -0.515625,-0.671875 0,-0.375 0.203125,-1.140625 0.375,-1.421875 0.3125,-0.5625 0.671875,-0.65625 0.859375,-0.65625 0.484375,0 0.625,0.53125 0.625,0.609375 0,0.015625 -0.015625,0.078125 -0.015625,0.09375 z m 0,0"
               id="id-b763a963-7173-4c4c-932b-f2aa3235ab1a" />
          </symbol>
        </g>
      </defs>
      <g
         id="id-324339a3-ee8c-4c30-b7be-ada72951a338"
         transform="translate(-149.009, -130.359)">
        <g
           style="fill:#000000;fill-opacity:1"
           id="id-4418a7ef-141d-414b-8d6f-4c6a57998658">
          <g
             transform="translate(148.712, 134.765)"
             id="g2645">
            <path
               style="stroke:none"
               d="M 3.484375,-0.5625 C 3.59375,-0.15625 3.953125,0.109375 4.375,0.109375 4.71875,0.109375 4.953125,-0.125 5.109375,-0.4375 5.28125,-0.796875 5.40625,-1.40625 5.40625,-1.421875 c 0,-0.109375 -0.078125,-0.109375 -0.109375,-0.109375 -0.109375,0 -0.109375,0.046875 -0.140625,0.1875 -0.140625,0.5625 -0.328125,1.234375 -0.75,1.234375 -0.203125,0 -0.3125,-0.125 -0.3125,-0.453125 0,-0.21875 0.125,-0.6875 0.203125,-1.046875 L 4.578125,-2.6875 C 4.609375,-2.828125 4.703125,-3.203125 4.75,-3.359375 4.796875,-3.59375 4.890625,-3.96875 4.890625,-4.03125 c 0,-0.171875 -0.140625,-0.265625 -0.28125,-0.265625 -0.046875,0 -0.3125,0.015625 -0.390625,0.34375 -0.1875,0.734375 -0.625,2.484375 -0.75,3 -0.015625,0.046875 -0.40625,0.84375 -1.140625,0.84375 -0.515625,0 -0.609375,-0.453125 -0.609375,-0.8125 0,-0.5625 0.28125,-1.34375 0.53125,-2.03125 0.125,-0.3125 0.171875,-0.453125 0.171875,-0.640625 0,-0.4375 -0.3125,-0.8125 -0.8125,-0.8125 -0.953125,0 -1.3125,1.453125 -1.3125,1.53125 0,0.109375 0.09375,0.109375 0.109375,0.109375 0.109375,0 0.109375,-0.03125 0.15625,-0.1875 0.25,-0.859375 0.640625,-1.234375 1.015625,-1.234375 0.09375,0 0.25,0.015625 0.25,0.328125 0,0.234375 -0.109375,0.53125 -0.171875,0.671875 -0.375,1 -0.578125,1.609375 -0.578125,2.09375 0,0.953125 0.6875,1.203125 1.21875,1.203125 0.65625,0 1.015625,-0.453125 1.1875,-0.671875 z m 0,0"
               id="id-b3492467-3d16-4d21-ba45-b5fd6685972c" />
          </g>
        </g>
        <g
           style="fill:#000000;fill-opacity:1"
           id="id-1793db8e-7704-456b-bd03-b1c3ee2f85f3">
          <g
             transform="translate(154.415, 136.259)"
             id="g2649">
            <path
               style="stroke:none"
               d="M 3.984375,-4.625 C 3.984375,-4.640625 4,-4.734375 4,-4.734375 4,-4.78125 3.984375,-4.84375 3.890625,-4.84375 3.75,-4.84375 3.171875,-4.78125 3,-4.765625 c -0.046875,0 -0.15625,0.015625 -0.15625,0.15625 0,0.09375 0.109375,0.09375 0.1875,0.09375 0.328125,0 0.328125,0.0625 0.328125,0.109375 0,0.046875 0,0.09375 -0.015625,0.15625 L 2.9375,-2.65625 c -0.140625,-0.234375 -0.375,-0.421875 -0.71875,-0.421875 -0.890625,0 -1.796875,0.984375 -1.796875,1.984375 0,0.6875 0.453125,1.15625 1.0625,1.15625 0.375,0 0.703125,-0.203125 0.984375,-0.484375 C 2.59375,0 3,0.0625 3.1875,0.0625 c 0.25,0 0.421875,-0.140625 0.546875,-0.359375 0.15625,-0.28125 0.25,-0.671875 0.25,-0.703125 0,-0.09375 -0.09375,-0.09375 -0.109375,-0.09375 -0.109375,0 -0.109375,0.03125 -0.15625,0.21875 C 3.625,-0.53125 3.5,-0.125 3.203125,-0.125 3.03125,-0.125 2.96875,-0.28125 2.96875,-0.46875 c 0,-0.125 0.015625,-0.1875 0.046875,-0.28125 z M 2.5,-0.875 C 2.453125,-0.671875 2.296875,-0.53125 2.140625,-0.40625 2.078125,-0.34375 1.796875,-0.125 1.5,-0.125 c -0.265625,0 -0.515625,-0.1875 -0.515625,-0.671875 0,-0.375 0.203125,-1.140625 0.375,-1.421875 0.3125,-0.5625 0.671875,-0.65625 0.859375,-0.65625 0.484375,0 0.625,0.53125 0.625,0.609375 0,0.015625 -0.015625,0.078125 -0.015625,0.09375 z m 0,0"
               id="id-7a28c694-e0a3-4ae7-8750-80994490f511" />
          </g>
        </g>
      </g>
    </g>
  </g>
</svg>
